<svg xmlns="http://www.w3.org/2000/svg" viewBox="0 0 320 88" fill="none" aria-hidden="true">
  <rect width="320" height="88" rx="10" fill="#F4F4F5"/>
  <g stroke="#D4D4D8" stroke-width="2">
    <rect x="12" y="16" width="46" height="56" rx="12" fill="#FFFFFF"/>
    <rect x="66" y="16" width="46" height="56" rx="12" fill="#FFFFFF"/>
    <rect x="120" y="16" width="46" height="56" rx="12" fill="#3B5CCC" stroke="#3B5CCC"/>
    <rect x="174" y="16" width="46" height="56" rx="12" fill="#FFFFFF"/>
    <rect x="228" y="16" width="46" height="56" rx="12" fill="#FFFFFF"/>
    <rect x="282" y="16" width="26" height="56" rx="12" fill="#FFFFFF"/>
  </g>
  <rect x="128" y="24" width="30" height="5" rx="2" fill="#F5F5F5"/>
  <rect x="130" y="34" width="26" height="12" rx="2" fill="#F5F5F5"/>
  <rect x="22" y="24" width="26" height="5" rx="2" fill="#D4D4D8"/>
  <rect x="24" y="34" width="22" height="12" rx="2" fill="#A3A3A3"/>
  <rect x="76" y="24" width="26" height="5" rx="2" fill="#D4D4D8"/>
  <rect x="78" y="34" width="22" height="12" rx="2" fill="#A3A3A3"/>
</svg>
